<svg width="80" height="80" viewBox="0 0 2500 2500" fill="none" xmlns="http://www.w3.org/2000/svg">
<path d="M1243.52 1298.66C1293.87 1335.19 1347.98 1352.15 1411.45 1361.73C1854.8 1411.8 1794.3 1574.71 1755.9 1766.42C1950.17 1485.98 2022.83 1282.03 1995.43 1107.75C1965.85 919.611 1833.49 782.735 1792.22 706.193C1791.56 706.52 1790.78 706.947 1790.12 707.28C1787.41 708.908 1784.76 710.508 1782.01 712.166C1761.22 724.688 1738.99 738.08 1715.73 752.692C1704.1 759.997 1692.21 767.607 1680.12 775.565C1668.03 783.523 1655.74 791.83 1643.29 800.527C1630.85 809.225 1618.25 818.314 1605.56 827.837C1592.87 837.36 1580.08 847.318 1567.24 857.754C1560.82 862.972 1554.39 868.309 1547.96 873.771C1541.52 879.234 1535.08 884.821 1528.65 890.538C1522.21 896.256 1515.77 902.105 1509.35 908.089C1502.92 914.072 1496.5 920.191 1490.1 926.452C1483.69 932.713 1477.31 939.114 1470.94 945.662C1464.57 952.211 1458.23 958.907 1451.91 965.754C1445.59 972.601 1439.31 979.599 1433.05 986.756C1426.8 993.912 1420.58 1001.23 1414.4 1008.7C1408.22 1016.18 1402.08 1023.82 1396 1031.63C1389.91 1039.44 1383.87 1047.41 1377.88 1055.56C1371.89 1063.71 1365.96 1072.04 1360.09 1080.54C1354.22 1089.04 1348.41 1097.72 1342.67 1106.59C1336.93 1115.45 1331.26 1124.51 1325.66 1133.75C1320.06 1142.99 1314.53 1152.42 1309.09 1162.04C1303.64 1171.67 1298.28 1181.49 1293 1191.51C1287.73 1201.54 1282.54 1211.76 1277.44 1222.19C1272.35 1232.62 1267.35 1243.25 1262.45 1254.1C1257.55 1264.95 1252.75 1276 1248.06 1287.28C1246.51 1291 1245.05 1294.89 1243.52 1298.66V1298.66Z" fill="#515151"/>
<path d="M1229.86 1333.98C1226.95 1341.77 1224.04 1349.56 1221.25 1357.58C1218.87 1364.41 1216.64 1371.19 1214.56 1377.92C1212.47 1384.65 1210.53 1391.32 1208.71 1397.95C1206.9 1404.57 1205.23 1411.14 1203.68 1417.65C1202.13 1424.16 1200.71 1430.62 1199.41 1437.01C1198.11 1443.4 1196.94 1449.73 1195.87 1455.99C1194.81 1462.26 1193.85 1468.46 1193.01 1474.59C1192.17 1480.72 1191.43 1486.78 1190.79 1492.76C1190.15 1498.75 1189.61 1504.66 1189.17 1510.5C1188.72 1516.34 1188.37 1522.1 1188.11 1527.78C1187.84 1533.46 1187.66 1539.06 1187.56 1544.57C1187.46 1549.96 1187.65 1555 1187.69 1560.22C1283.84 1560.96 1463.19 1558.6 1638.28 1446.23C1635.03 1444.59 1631.48 1442.95 1627.46 1441.29C1623.11 1439.48 1618.43 1437.72 1613.45 1436C1608.47 1434.28 1603.2 1432.61 1597.67 1430.97C1592.15 1429.33 1586.37 1427.74 1580.37 1426.18C1574.38 1424.63 1568.17 1423.12 1561.78 1421.65C1549.04 1418.73 1535.76 1416.02 1522.31 1413.51C1508.87 1411 1495.24 1408.7 1481.82 1406.59C1468.39 1404.48 1455.16 1402.58 1442.48 1400.86C1429.81 1399.15 1417.7 1397.63 1406.51 1396.3C1400.38 1395.57 1394.47 1394.78 1388.77 1393.93C1383.07 1393.09 1377.58 1392.19 1372.29 1391.24C1361.7 1389.35 1351.91 1387.26 1342.82 1385.02C1333.73 1382.79 1325.35 1380.4 1317.58 1377.9C1309.8 1375.4 1302.65 1372.8 1296.02 1370.13C1289.39 1367.46 1283.28 1364.73 1277.62 1361.98C1271.95 1359.23 1266.72 1356.46 1261.84 1353.71C1256.96 1350.96 1252.43 1348.24 1248.15 1345.58C1243.88 1342.92 1239.87 1340.34 1236.03 1337.86C1233.87 1336.46 1231.92 1335.29 1229.86 1333.98V1333.98Z" fill="#515151"/>
<path d="M1228.94 400C888.1 400 702.548 556.398 607.43 667.323L802.517 667.325C839.463 667.325 869.679 697.737 870.646 735.892L871.902 785.447C872.336 802.59 885.912 816.253 902.51 816.253H984.61C984.574 814.751 984.554 813.246 984.554 811.735C984.554 712.267 1062.61 631.633 1158.89 631.633C1255.17 631.633 1333.22 712.267 1333.22 811.735C1333.22 911.202 1255.17 991.837 1158.89 991.837C1077.05 991.837 1008.4 933.582 989.637 855.028H902.512C865.566 855.028 835.348 824.618 834.381 786.464L833.125 736.906C832.691 719.764 819.116 706.101 802.517 706.101L576.1 706.099C566.337 718.891 558.001 730.462 550.981 740.308C534.019 764.096 510.989 800.66 488.068 847.449H668.442C675.454 829.238 692.442 816.152 712.608 815.607C739.602 814.876 762.059 836.891 762.765 864.778C763.471 892.664 742.16 915.861 715.166 916.592C694.644 917.146 676.757 904.548 669.044 886.224H470.224C442.16 951.234 416.816 1031.27 406.237 1121.45L479.484 1121.79C496.394 1121.86 510.165 1107.76 510.24 1090.29L510.443 1043.13C510.61 1004.37 541.075 973.035 578.597 973.035L843.499 973.037C849.974 953.73 867.486 939.642 888.425 939.076C915.419 938.346 937.875 960.361 938.582 988.247C939.288 1016.13 917.977 1039.33 890.983 1040.06C871.262 1040.59 853.977 1028.98 845.812 1011.81L578.597 1011.81C561.739 1011.81 548.052 1025.89 547.977 1043.3L547.774 1090.47C547.606 1129.35 516.956 1160.73 479.316 1160.56L402.656 1160.21C392.045 1320.2 430.302 1508.24 579.087 1699.49C785.48 1964.8 1161.28 2037.24 1324.26 2400C1393.63 2056.86 1195.68 1884.53 1161.82 1675.99C1161.14 1672.61 1160.43 1669.5 1159.78 1665.95C1158.25 1657.53 1156.83 1648.64 1155.56 1639.3C1154.29 1629.95 1153.18 1620.15 1152.29 1609.94C1151.4 1599.72 1150.72 1589.07 1150.33 1578.05C1149.93 1567.02 1149.81 1555.6 1150.03 1543.82C1150.14 1537.93 1150.33 1531.95 1150.62 1525.89C1150.9 1519.83 1151.28 1513.68 1151.75 1507.46C1152.23 1501.23 1152.8 1494.92 1153.48 1488.53C1154.16 1482.14 1154.95 1475.68 1155.85 1469.14C1156.75 1462.61 1157.76 1456 1158.9 1449.32C1160.03 1442.64 1161.29 1435.89 1162.67 1429.08C1164.06 1422.26 1165.57 1415.39 1167.22 1408.45C1168.87 1401.51 1170.65 1394.51 1172.58 1387.45C1174.51 1380.4 1176.58 1373.28 1178.8 1366.11C1181.03 1358.95 1183.4 1351.73 1185.93 1344.46C1190.31 1331.88 1194.82 1319.53 1199.45 1307.41C1204.07 1295.29 1208.82 1283.4 1213.67 1271.74C1218.53 1260.07 1223.5 1248.63 1228.57 1237.41C1233.65 1226.18 1238.82 1215.18 1244.1 1204.39C1249.37 1193.6 1254.75 1183.02 1260.21 1172.65C1265.68 1162.28 1271.23 1152.12 1276.87 1142.16C1282.51 1132.2 1288.23 1122.44 1294.03 1112.87C1299.83 1103.31 1305.7 1093.95 1311.65 1084.78C1317.59 1075.6 1323.61 1066.62 1329.68 1057.82C1335.76 1049.03 1341.9 1040.41 1348.09 1031.98C1354.29 1023.55 1360.54 1015.3 1366.84 1007.23C1373.14 999.151 1379.48 991.25 1385.87 983.518C1392.26 975.786 1398.69 968.224 1405.16 960.826C1411.62 953.427 1418.12 946.193 1424.65 939.116C1431.17 932.04 1437.73 925.121 1444.3 918.355C1450.87 911.59 1457.47 904.978 1464.07 898.513C1470.68 892.048 1477.3 885.732 1483.93 879.556C1490.56 873.38 1497.19 867.347 1503.82 861.45C1510.45 855.553 1517.08 849.79 1523.71 844.161C1530.33 838.531 1536.95 833.034 1543.55 827.661C1556.75 816.914 1569.89 806.669 1582.92 796.883C1595.94 787.097 1608.85 777.767 1621.59 768.854C1634.33 759.94 1646.9 751.442 1659.23 743.314C1671.57 735.185 1683.68 727.427 1695.51 719.996C1707.33 712.564 1718.87 705.46 1730.07 698.639C1741.27 691.817 1752.13 685.279 1762.59 678.98C1765.97 676.941 1769.23 674.974 1772.53 672.983C1682.42 541.221 1443.18 400 1228.94 400Z" fill="#515151"/>
<path d="M1158.89 942.856C1232.26 942.856 1291.74 882.323 1291.74 807.652C1291.74 732.981 1232.26 672.448 1158.89 672.448C1085.52 672.448 1026.04 732.981 1026.04 807.652C1026.04 882.323 1085.52 942.856 1158.89 942.856Z" fill="#515151"/>
</svg>
